<svg width="17" height="15" viewBox="0 0 17 15" fill="none" xmlns="http://www.w3.org/2000/svg">
<path d="M14.4642 2.24416C14.1088 1.88757 13.6866 1.60463 13.2216 1.41157C12.7567 1.21852 12.2582 1.11914 11.7548 1.11914C11.2514 1.11914 10.7529 1.21852 10.288 1.41157C9.82303 1.60463 9.40077 1.88757 9.04542 2.24416L8.5 2.79666L7.95458 2.24416C7.59923 1.88757 7.17697 1.60463 6.71204 1.41157C6.2471 1.21852 5.74863 1.11914 5.24521 1.11914C4.74178 1.11914 4.24331 1.21852 3.77838 1.41157C3.31344 1.60463 2.89119 1.88757 2.53583 2.24416C1.03417 3.74582 0.942083 6.28166 2.83333 8.20832L8.5 13.875L14.1667 8.20832C16.0579 6.28166 15.9658 3.74582 14.4642 2.24416Z" stroke="#E63946" stroke-width="2" stroke-linecap="round" stroke-linejoin="round"/>
</svg>
