<svg width="68" height="68" viewBox="0 0 68 68" fill="none" xmlns="http://www.w3.org/2000/svg">
<g clip-path="url(#clip0_2_71)">
<path d="M65.5074 5.60788C67.1034 7.20462 68 9.36984 68 11.6275C68 13.8851 67.1034 16.0503 65.5074 17.6471L58.0125 25.1462L42.8517 9.99176L50.3508 2.49263C51.9488 0.896472 54.115 -9.15527e-05 56.3736 -9.15527e-05C58.6322 -9.15527e-05 60.7984 0.896472 62.3964 2.49263L65.5074 5.60788ZM5.96914 46.886L39.8438 12.9986L55.0035 28.1509L21.1098 62.0288C20.2137 62.9221 19.1074 63.5758 17.8925 63.9296L4.06726 67.8789C3.51102 68.0411 2.91983 68.0397 2.36436 67.8748C1.8089 67.71 1.31267 67.3886 0.935013 66.9492C0.528074 66.5743 0.235799 66.0917 0.0921157 65.5574C-0.0515681 65.0231 -0.0407679 64.459 0.123263 63.9306L4.07576 50.1033C4.4204 48.8862 5.07243 47.7782 5.96914 46.886ZM33.1596 13.6723L13.7477 33.0841L2.12501 21.4498C1.53245 20.8577 1.06237 20.1547 0.741645 19.3809C0.420922 18.6071 0.255842 17.7776 0.255842 16.94C0.255842 16.1023 0.420922 15.2729 0.741645 14.4991C1.06237 13.7253 1.53245 13.0222 2.12501 12.4302L12.5056 2.04851C13.0977 1.45594 13.8007 0.985865 14.5745 0.665141C15.3483 0.344418 16.1778 0.179338 17.0154 0.179338C17.8531 0.179338 18.6825 0.344418 19.4563 0.665141C20.2301 0.985865 20.9332 1.45594 21.5252 2.04851L24.1581 4.67607C24.1177 4.71432 24.0646 4.75576 24.0253 4.79932L15.5125 13.311C15.3096 13.507 15.1477 13.7415 15.0363 14.0008C14.9249 14.26 14.8663 14.5389 14.8639 14.821C14.8614 15.1032 14.9152 15.383 15.022 15.6442C15.1289 15.9053 15.2867 16.1426 15.4862 16.3421C15.6857 16.5416 15.923 16.6994 16.1841 16.8063C16.4453 16.9131 16.7251 16.9669 17.0072 16.9644C17.2894 16.962 17.5682 16.9033 17.8275 16.792C18.0868 16.6806 18.3212 16.5187 18.5173 16.3158L27.03 7.80938C27.0704 7.76688 27.0034 7.7212 27.1501 7.67551L33.1596 13.6723ZM60.3224 40.8489C60.2749 40.8852 60.2304 40.9253 60.1896 40.9689L51.68 49.4774C51.2929 49.8782 51.0787 50.415 51.0836 50.9722C51.0884 51.5293 51.3119 52.0623 51.7059 52.4563C52.0999 52.8503 52.6329 53.0738 53.19 53.0786C53.7472 53.0835 54.284 52.8693 54.6848 52.4822L63.1943 43.9726C63.2347 43.8133 63.1678 43.8791 63.3144 43.8398L65.9473 46.4727C67.1424 47.6682 67.8138 49.2894 67.8138 50.9798C67.8138 52.6702 67.1424 54.2914 65.9473 55.4869L55.5634 65.8708C54.368 67.0659 52.7467 67.7373 51.0563 67.7373C49.3659 67.7373 47.7447 67.0659 46.5492 65.8708L34.9148 54.2513L54.3267 34.8394L60.3224 40.8489Z" fill="#A68F4B"/>
</g>
<defs>
<clipPath id="clip0_2_71">
<rect width="68" height="68" fill="white"/>
</clipPath>
</defs>
</svg>
