<svg width="68" height="68" viewBox="0 0 68 68" fill="none" xmlns="http://www.w3.org/2000/svg">
<g clip-path="url(#clip0_2_81)">
<path d="M46.75 12.75C46.7541 14.5936 46.3552 16.4158 45.5813 18.0891L52.5938 30.2016C49.409 33.6087 45.3467 36.0718 40.8531 37.3203L34 25.5H33.881L24.956 41.106C27.8815 42.031 30.9317 42.5011 34 42.5C38.4741 42.5098 42.8916 41.4994 46.9167 39.5456C50.9417 37.5919 54.4683 34.7461 57.2284 31.2247C57.9547 30.3655 58.9899 29.8264 60.1104 29.7239C61.2308 29.6213 62.3467 29.9636 63.2169 30.6768C64.0872 31.3899 64.642 32.4168 64.7616 33.5355C64.8812 34.6543 64.556 35.7752 63.8562 36.6562C60.2685 41.127 55.7239 44.7363 50.557 47.2186C45.3901 49.701 39.7323 50.9931 34 51C29.4342 51.0051 24.9044 50.1907 20.6263 48.5956L13.1017 61.5857C12.4766 62.6643 11.55 63.537 10.4359 64.0964L3.07594 67.7747C2.752 67.9368 2.39201 68.0134 2.03015 67.9973C1.66828 67.9811 1.31655 67.8727 1.00837 67.6824C0.700181 67.492 0.445766 67.2261 0.269282 66.9097C0.0927977 66.5934 0.00010284 66.2372 0 65.875L0 58.5182C0.00239815 57.3946 0.298338 56.291 0.8585 55.3169L8.82725 41.5576C7.1275 40.0621 5.56047 38.4222 4.14375 36.6562C3.43736 35.7752 3.10715 34.6509 3.22482 33.5278C3.3425 32.4047 3.89857 31.3733 4.77224 30.6578C5.64591 29.9422 6.76662 29.6003 7.89093 29.7063C9.01524 29.8122 10.0523 30.3575 10.7769 31.2237C11.4954 32.2262 12.3053 33.1598 13.1962 34.0127L22.4188 18.0891C21.6216 16.3579 21.2227 14.47 21.2514 12.5644C21.2802 10.6587 21.7357 8.78375 22.5846 7.07738C23.4335 5.37101 24.6542 3.87665 26.1568 2.70424C27.6594 1.53183 29.4057 0.711201 31.2673 0.30271C33.1288 -0.105781 35.0583 -0.0917359 36.9137 0.343811C38.7692 0.779359 40.5034 1.62533 41.9887 2.81949C43.4741 4.01364 44.6729 5.52561 45.4969 7.24416C46.3208 8.96271 46.749 10.8441 46.75 12.75ZM34 17C34.8406 17 35.6623 16.7507 36.3612 16.2837C37.0601 15.8167 37.6048 15.153 37.9265 14.3764C38.2482 13.5998 38.3323 12.7453 38.1683 11.9209C38.0043 11.0964 37.5996 10.3392 37.0052 9.74479C36.4108 9.15041 35.6536 8.74564 34.8291 8.58165C34.0047 8.41767 33.1502 8.50183 32.3736 8.8235C31.597 9.14518 30.9333 9.68991 30.4663 10.3888C29.9993 11.0877 29.75 11.9094 29.75 12.75C29.75 13.8772 30.1978 14.9582 30.9948 15.7552C31.7918 16.5522 32.8728 17 34 17ZM49.4201 52.3154C53.7576 50.6594 57.785 48.284 61.3328 45.2891L67.1373 55.3169C67.7027 56.289 68.0004 57.3936 68 58.5182V65.875C68.0004 66.2379 67.9077 66.5949 67.731 66.9119C67.5542 67.229 67.2992 67.4954 66.9902 67.6859C66.6813 67.8764 66.3287 67.9846 65.9661 68.0001C65.6034 68.0157 65.2429 67.9381 64.9187 67.7747L57.5609 64.0953C56.4479 63.5327 55.5208 62.661 54.8909 61.5846L49.4201 52.3154Z" fill="#A68F4B"/>
</g>
<defs>
<clipPath id="clip0_2_81">
<rect width="68" height="68" fill="white"/>
</clipPath>
</defs>
</svg>
